<svg width="22" height="20" viewBox="0 0 22 20" fill="none" xmlns="http://www.w3.org/2000/svg">
<path d="M19.2078 2.34133C18.7191 1.83683 18.1389 1.43663 17.5003 1.16358C16.8617 0.890537 16.1772 0.75 15.4859 0.75C14.7946 0.75 14.1101 0.890537 13.4715 1.16358C12.8329 1.43663 12.2526 1.83683 11.7639 2.34133L10.7497 3.38785L9.73554 2.34133C8.74842 1.32276 7.4096 0.750528 6.01361 0.750528C4.61761 0.750528 3.27879 1.32276 2.29168 2.34133C1.30456 3.3599 0.75 4.74139 0.75 6.18187C0.75 7.62235 1.30456 9.00383 2.29168 10.0224L10.7497 18.75L19.2078 10.0224C19.6967 9.51814 20.0846 8.91942 20.3492 8.26045C20.6138 7.60148 20.75 6.89517 20.75 6.18187C20.75 5.46857 20.6138 4.76225 20.3492 4.10328C20.0846 3.44431 19.6967 2.84559 19.2078 2.34133Z" stroke="currentColor" stroke-width="1.5" stroke-linecap="round" stroke-linejoin="round"/>
</svg>
