<svg width="52" height="52" viewBox="0 0 52 52" fill="none" xmlns="http://www.w3.org/2000/svg">
<path fill-rule="evenodd" clip-rule="evenodd" d="M5.16667 0H46.5C49.3535 0 51.6667 2.3132 51.6667 5.16667V46.5C51.6667 49.3535 49.3535 51.6667 46.5 51.6667H5.16667C2.3132 51.6667 0 49.3535 0 46.5V5.16667C0 2.3132 2.3132 0 5.16667 0ZM5.16667 5.16667V35.0966L15.5 24.7633L24.5417 33.805L41.3333 17.0133L46.5 22.1799V5.16667H5.16667ZM5.16667 46.5V42.4034L15.5 32.0701L29.9299 46.5H5.16667ZM46.5 46.5H37.2367L28.195 37.4583L41.3333 24.32L46.5 29.4867V46.5ZM31 15.5C31 11.2198 27.5302 7.75 23.25 7.75C18.9698 7.75 15.5 11.2198 15.5 15.5C15.5 19.7802 18.9698 23.25 23.25 23.25C27.5302 23.25 31 19.7802 31 15.5ZM20.6667 15.5C20.6667 14.0733 21.8233 12.9167 23.25 12.9167C24.6767 12.9167 25.8333 14.0733 25.8333 15.5C25.8333 16.9267 24.6767 18.0833 23.25 18.0833C21.8233 18.0833 20.6667 16.9267 20.6667 15.5Z" fill="#333333"/>
</svg>
